<svg xmlns="http://www.w3.org/2000/svg" xmlns:xlink="http://www.w3.org/1999/xlink" version="1.1" x="0px" y="0px" viewBox="0 0 100 125" enable-background="new 0 0 100 100" xml:space="preserve"><path d="M50,6.515625C26.0229492,6.515625,6.515625,26.0229492,6.515625,50S26.0229492,93.484375,50,93.484375  S93.484375,73.9770508,93.484375,50S73.9770508,6.515625,50,6.515625z M49.9975586,65.5129395h-1.0100098  c-1.1665039,0-2.1120605-0.9455566-2.1120605-2.1120605s0.9455566-2.1120605,2.1120605-2.1120605h1.0100098  c1.1665039,0,2.1120605,0.9455566,2.1120605,2.1120605S51.1640625,65.5129395,49.9975586,65.5129395z M52.901123,53.550293  c-0.6584473,0.3972168-1.0720215,1.1025391-1.0560303,1.8713379l0.0374756,1.8044434  c0.024292,1.1660156-0.9013672,2.1313477-2.0673828,2.1555176l-0.8146973,0.0170898  c-1.1660156,0.0241699-2.1311035-0.9013672-2.1555176-2.0673828l-0.0266113-4.059082  c-0.0073242-1.1394043,0.5947266-2.1958008,1.5789795-2.7697754c6.2454834-3.121582,7.5291748-6.3139648,7.5955811-7.2480469  c0.104126-1.458252-0.2978516-2.7189941-1.161377-3.6464844c-0.9669189-1.0383301-2.4841309-1.6337891-4.1639404-1.6337891  c-1.8023682,0-3.7789307,1.1071777-4.9456787,2.6428223c-0.5499268,0.7236328-1.5493164,0.9372559-2.3937988,0.6008301  l-0.7774658-0.3098145c-1.2650146-0.5039063-1.7634277-2.0793457-0.9552002-3.1750488  c2.1003418-2.8481445,5.6369629-4.7978516,9.0721436-4.7978516c3.0731201,0,5.9354248,1.1804199,7.8514404,3.2387695  c1.8157959,1.9504395,2.703125,4.5922852,2.4997559,7.4389648C60.9249268,44.9309082,60.0407715,49.2460938,52.901123,53.550293z   M73.3022461,84.4238281l-0.3483887-0.0686035c-2.5509033-0.5012207-4.4946289-0.779541-6.0561523-1.0031738  c-4.282959-0.612793-5.1738281-0.7407227-6.8022461-3.7011719c-0.3070068-0.5583496-0.6580811-1.9433594-0.6035156-5.3684082  c4.8024902-4.5224609,8.1293945-10.369873,9.0563965-14.0393066c1.8103027-0.097168,4.3933105-2.1269531,5.0109863-4.5473633  c0.578125-2.2675781,0.4129639-4.1437988-0.4661865-5.2817383c-0.463501-0.6005859-1.1068115-0.958252-1.8751221-1.046875  L70.5,49.46875c0.2790527-2.032959,0.6898193-5.0966797,0.8818359-7.2709961  c0.3369141-1.6728516,0.6810303-3.4592285,0.8598633-5.2966309c0.1999512-2.0522461,0.140625-3.9726563-0.1757813-5.7087402  l-0.1629639-0.8095703c-0.2895508-1.2109375-0.7144775-2.2993164-1.2650146-3.239502  c-0.8605957-1.4692383-2.0490723-2.6259766-2.9885254-3.4694824c-3.8688965-3.4736328-8.4836426-5.8527832-13.3442383-6.8808594  c-2.5126953-0.5322266-6.2169189-1.0334473-9.3605957,0.7392578c-2.1445313,1.2092285-4.4106445,2.9064941-6.9207764,5.1831055  c-3.6286621-0.5231934-8.0316162,2.7883301-9.2630615,5.3325195C27.8195801,29.9926758,26.8024902,32.3395996,26.3969727,35  c-0.9107666,5.9655762,0.3603516,9.9360352,2.7600098,14.3723145c-0.682251,0.092041-1.262207,0.3986816-1.7055664,0.9077148  c-0.9604492,1.1047363-1.1695557,3.0786133-0.572876,5.4157715c0.6112061,2.395752,3.18396,4.4294434,4.9884033,4.5446777  c1.0158691,4.0825195,4.5053711,9.6022949,8.6322021,13.630127c0.0900879,3.7141113-0.2723389,5.1938477-0.5948486,5.7802734  c-1.6286621,2.9604492-2.5197754,3.0883789-6.8027344,3.7011719c-1.5614014,0.2236328-3.5046387,0.5019531-6.0556641,1.0031738  l-0.3480225,0.0686035C15.673584,76.9375,8.4160156,64.3010254,8.4160156,50  C8.4160156,27.0703125,27.0703125,8.4160156,50,8.4160156S91.5839844,27.0703125,91.5839844,50  C91.5839844,64.3010254,84.326416,76.9375,73.3022461,84.4238281z"/><text x="0" y="115" fill="#000000" font-size="5px" font-weight="bold" font-family="'Helvetica Neue', Helvetica, Arial-Unicode, Arial, Sans-serif">Created by Llisole</text><text x="0" y="120" fill="#000000" font-size="5px" font-weight="bold" font-family="'Helvetica Neue', Helvetica, Arial-Unicode, Arial, Sans-serif">from the Noun Project</text></svg>